<svg version="1.2" xmlns="http://www.w3.org/2000/svg" viewBox="0 0 132 40" width="132" height="40">
    <path d="M 197.653 172.405 L 206.84 172.405 L 206.84 174.989 L 201.385 174.989 L 201.385 177.089 L 206.045 177.089 L 206.045 179.517 L 201.385 179.517 L 201.385 184.431 L 197.653 184.431 Z M 207.887 172.405 L 211.603 172.405 L 211.603 181.47 L 217.403 181.47 L 217.403 184.431 L 207.887 184.431 Z M 217.223 172.405 L 227.182 172.405 L 227.182 174.973 L 220.947 174.973 L 220.947 176.884 L 226.73 176.884 L 226.73 179.337 L 220.947 179.337 L 220.947 181.708 L 227.362 181.708 L 227.362 184.431 L 217.223 184.431 Z M 227.591 172.405 L 231.684 172.405 L 233.817 176.105 L 235.884 172.405 L 239.936 172.405 L 236.196 178.229 L 240.289 184.431 L 236.114 184.431 L 233.743 180.567 L 231.364 184.431 L 227.213 184.431 L 231.364 178.164 Z M 239.771 172.405 L 243.495 172.405 L 243.495 184.431 L 239.771 184.431 Z M 243.631 180.452 L 247.167 180.231 Q 247.282 181.092 247.634 181.543 Q 248.209 182.274 249.275 182.274 Q 250.071 182.274 250.501 181.9 Q 250.932 181.527 250.932 181.035 Q 250.932 180.567 250.522 180.198 Q 250.112 179.829 248.619 179.501 Q 246.174 178.951 245.132 178.041 Q 244.082 177.13 244.082 175.719 Q 244.082 174.792 244.62 173.968 Q 245.157 173.143 246.236 172.672 Q 247.314 172.2 249.193 172.2 Q 251.498 172.2 252.708 173.057 Q 253.918 173.915 254.148 175.785 L 250.645 175.99 Q 250.506 175.178 250.058 174.809 Q 249.611 174.44 248.824 174.44 Q 248.176 174.44 247.848 174.714 Q 247.52 174.989 247.52 175.383 Q 247.52 175.67 247.79 175.9 Q 248.053 176.138 249.037 176.343 Q 251.473 176.868 252.528 177.405 Q 253.582 177.942 254.062 178.738 Q 254.541 179.534 254.541 180.518 Q 254.541 181.675 253.902 182.651 Q 253.262 183.627 252.113 184.132 Q 250.965 184.636 249.218 184.636 Q 246.15 184.636 244.968 183.455 Q 243.787 182.274 243.631 180.452 Z M 255.467 172.405 L 261.644 172.405 Q 263.662 172.405 264.666 173.365 Q 265.671 174.325 265.671 176.097 Q 265.671 177.918 264.576 178.943 Q 263.481 179.968 261.233 179.968 L 259.199 179.968 L 259.199 184.431 L 255.467 184.431 Z M 259.199 177.532 L 260.11 177.532 Q 261.184 177.532 261.619 177.159 Q 262.054 176.786 262.054 176.203 Q 262.054 175.637 261.676 175.243 Q 261.299 174.85 260.257 174.85 L 259.199 174.85 Z M 265.473 172.405 L 269.599 172.405 L 272.027 176.466 L 274.455 172.405 L 278.557 172.405 L 273.881 179.394 L 273.881 184.431 L 270.157 184.431 L 270.157 179.394 Z" style="fill: rgb(51, 51, 51); white-space: pre;"/>
</svg>
