<svg version="1.2" xmlns="http://www.w3.org/2000/svg" viewBox="0 0 132 40" width="132" height="40"><style></style><path fill-rule="evenodd" d="m25.7 14.4h9.1v2.6h-5.4v2.1h4.6v2.4h-4.6v4.9h-3.7zm10.2 0h3.7v9.1h5.6v-9.1h10v2.6h-6.3v1.9h5.8v2.5h-5.8v2.3h6.5v2.5l4-6-3.8-5.8h4.1l2.1 3.7 2.1-3.7h7.6v12.1h-7.4l-2.4-3.9-2.3 3.9h-23.5zm28.3 5.8l3.6 5.4v-11zm7.4 2.2l3.5-0.2q0.2 0.9 0.5 1.3 0.6 0.8 1.6 0.8 0.8 0 1.3-0.4 0.4-0.4 0.4-0.9 0-0.4-0.4-0.8-0.4-0.4-1.9-0.7-2.5-0.6-3.5-1.5-1-0.9-1-2.3 0-0.9 0.5-1.7 0.5-0.9 1.6-1.3 1.1-0.5 3-0.5 2.3 0 3.5 0.8 1.2 0.9 1.4 2.8l-3.5 0.2q-0.1-0.8-0.6-1.2-0.4-0.4-1.2-0.4-0.6 0-1 0.3-0.3 0.3-0.3 0.7 0 0.3 0.3 0.5 0.2 0.2 1.2 0.4 2.4 0.6 3.5 1.1 1.1 0.5 1.5 1.3 0.5 0.8 0.5 1.8 0 1.2-0.6 2.1-0.7 1-1.8 1.5-1.2 0.5-2.9 0.5-3.1 0-4.3-1.2-1.1-1.1-1.3-3zm11.8-8h6.2q2 0 3 0.9 1 1 1 2.8 0 1.8-1 2.8-1.1 1.1-3.4 1.1h-2v4.4h-3.8zm3.8 5.1h0.9q1.1 0 1.5-0.3 0.4-0.4 0.4-1 0-0.6-0.3-0.9-0.4-0.4-1.5-0.4h-1zm6.2-5.2h4.2l2.4 4.1 2.4-4.1h4.1l-4.6 7v5.1h-3.8v-5.1z"/></svg>