<svg version="1.2" xmlns="http://www.w3.org/2000/svg" viewBox="0 0 132 40" width="132" height="40">
    <path fill-rule="evenodd" d="m18.7 10.9v17.6q0 0.3-0.4 0.6-0.4 0.3-1 0.3-0.5 0-0.9-0.3-0.4-0.3-0.4-0.6v-17.6q0-0.4 0.4-0.7 0.4-0.2 1-0.2 0.5 0 0.9 0.2 0.4 0.3 0.4 0.7zm5.4 6.3q0.4-0.2 0.9-0.2 0.6 0 1 0.2 0.4 0.3 0.4 0.7v10.6q0 0.3-0.4 0.6-0.4 0.3-0.9 0.3-0.6 0-1-0.3-0.3-0.3-0.3-0.6v-7.9l-1.5 0.9q-0.2 0.2-0.7 0.1-0.5-0.1-0.8-0.5-0.4-0.4-0.5-0.9c0-0.3 0.1-0.5 0.2-0.7zm4.3 8.8q0-2 1.6-2.8 1.5-0.8 4.3-0.8h1.1v-0.5q0-1.2-0.6-2-0.6-0.8-1.8-0.8-1.1 0-1.9 0.4c-0.6 0.3-0.9 0.4-1 0.4q-0.4 0-0.7-0.4-0.2-0.4-0.2-0.9 0-0.7 1.2-1.2 1.2-0.5 2.6-0.5 2.6 0 3.9 1.4 1.2 1.4 1.2 3.6v6.3q0 0.4-0.4 0.6-0.3 0.3-0.9 0.3-0.5 0-0.8-0.3-0.4-0.2-0.4-0.6v-0.8q-1.7 1.9-3.8 1.9-1.5 0-2.4-0.8-1-0.9-1-2.5zm2.7-0.3q0 0.8 0.5 1.2 0.4 0.4 1.1 0.4 1 0 1.9-0.8 0.8-0.8 0.8-1.7v-1h-0.6q-1.1 0-1.8 0.2-0.8 0.1-1.3 0.5-0.6 0.4-0.6 1.2zm9.3-1.4v-2.3q0-2.2 1.3-3.7 1.3-1.4 3.9-1.3 1.6 0 2.8 0.5 1.1 0.6 1.1 1.3 0 0.4-0.3 0.9-0.4 0.4-0.8 0.4-0.1 0-0.9-0.4-0.8-0.4-1.7-0.4-2.8 0-2.8 2.7v2.3q0 2.7 2.8 2.7 1 0 1.8-0.4 0.7-0.5 0.9-0.5 0.5 0 0.8 0.5 0.3 0.4 0.3 0.8 0 0.7-1.1 1.3-1.2 0.6-2.9 0.6-2.6 0-3.9-1.4c-0.9-0.8-1.3-2.1-1.3-3.6zm11.2 4v-17.5q0-0.4 0.3-0.6 0.4-0.3 0.9-0.3c0.4 0 0.8 0.1 1 0.3q0.4 0.2 0.4 0.6v11.3l5.3-4.9q0.2-0.2 0.5-0.2 0.5 0 0.9 0.4 0.4 0.4 0.4 0.9 0 0.3-0.2 0.5l-3.3 2.9 4 5.8q0.2 0.2 0.2 0.4 0 0.5-0.5 0.9-0.6 0.5-1 0.5-0.5 0-0.7-0.4l-3.7-5.5-1.9 1.7v3.2q0 0.3-0.4 0.6-0.4 0.3-1 0.3-0.5 0-0.9-0.3-0.3-0.3-0.3-0.6zm11.4-4v-2.4q-0.1-2 1.5-3.5c1-0.9 2.3-1.4 3.7-1.4q2.1 0 3.6 1.3 1.5 1.3 1.4 3.3 0.1 0.8-0.1 1.3-0.2 0.4-0.6 0.6-0.4 0.2-0.7 0.3-0.3 0-0.9 0h-5.3v0.6q0 1.3 0.9 2 0.9 0.8 2.4 0.8 1.1 0 2-0.5 0.9-0.5 1.1-0.5 0.4 0 0.7 0.4 0.3 0.4 0.3 0.8c0 0.5-0.4 0.9-1.2 1.3q-1.2 0.7-3 0.7-2.5 0-4.2-1.4-1.7-1.4-1.6-3.7zm6.8-2.2q0.6 0 0.7-0.1 0.2-0.2 0.2-0.6 0-1-0.7-1.7-0.7-0.7-1.8-0.7-1.1 0-1.8 0.6-0.8 0.7-0.8 1.7v0.8zm5.6 6.2v-10.3q0-0.4 0.4-0.6 0.3-0.3 0.9-0.3 0.5 0 0.9 0.3 0.3 0.2 0.3 0.6v1.1q0.4-0.9 1.3-1.5 0.9-0.6 1.9-0.6h0.8q0.4-0.1 0.7 0.3 0.3 0.4 0.3 0.8 0 0.5-0.3 0.9-0.3 0.3-0.7 0.3h-0.8q-1.2 0-2.1 1.1-0.9 1-0.9 2.6v5.2q0 0.4-0.4 0.6-0.4 0.3-1 0.3-0.5 0-0.9-0.3c-0.3-0.1-0.4-0.3-0.4-0.5zm8.3-3.8v-2.8q0-1.9 1.4-3.3 1.4-1.4 3.3-1.4c1.3 0 2.5 0.4 3.4 1.4q1.4 1.4 1.4 3.3v2.8q0 1.9-1.4 3.3-1.4 1.5-3.4 1.5-1.9 0-3.3-1.5-1.5-1.4-1.4-3.3zm1.6 0q0 1.3 0.9 2.3 0.9 1 2.2 1 1.3 0 2.3-1 0.9-1 0.9-2.3v-2.8q0-1.2-0.9-2.2-1-1-2.3-1-1.3 0-2.2 1-0.9 1-0.9 2.2v2.8zm10 4v-10.7q0-0.3 0.2-0.5 0.2-0.2 0.6-0.2 0.3 0 0.5 0.2 0.2 0.2 0.2 0.5v1.1q0.4-0.8 1.3-1.4 0.9-0.5 2.1-0.5 1.8 0 3.1 1.4 1.4 1.4 1.4 3.3v6.8q0 0.3-0.3 0.5c-0.1 0.1-0.3 0.1-0.6 0.1-0.2 0-0.3 0-0.5-0.1q-0.3-0.2-0.3-0.5v-6.8q0-1.2-0.9-2.2-0.9-1-2.2-1-1.2 0-2.1 0.9-0.9 0.9-0.9 2.3v6.8q0 0.2-0.3 0.4-0.2 0.2-0.6 0.2-0.3 0-0.6-0.2-0.1-0.1-0.1-0.4zm11.3-4v-2.8q0-2 1.4-3.3c0.9-0.9 2.1-1.4 3.4-1.4q1.9 0 3.3 1.3 1.4 1.3 1.4 3.3 0 0.7-0.1 1.2-0.2 0.4-0.6 0.6-0.3 0.1-0.7 0.2-0.3 0.1-0.8 0.1h-5.7v0.9q0 1.5 1.1 2.4 1.1 0.9 2.7 0.9 0.9 0 1.5-0.3 0.6-0.1 1-0.5c0.3-0.1 0.4-0.2 0.6-0.2q0.2 0 0.4 0.2 0.3 0.3 0.3 0.5 0 0.6-1.1 1.1-1.1 0.6-2.7 0.6-2.4 0-3.9-1.3c-1-0.9-1.5-2.1-1.5-3.5zm1.6-2.1h5.1q0.7 0 1-0.2 0.2-0.1 0.2-0.6 0-1.3-0.9-2.3-0.9-0.9-2.2-0.9-1.3 0-2.3 0.9-0.9 0.9-0.9 2.1z"/>
</svg>
